<svg width="183" height="161" viewBox="0 0 183 161" fill="none" xmlns="http://www.w3.org/2000/svg">
<path fill-rule="evenodd" clip-rule="evenodd" d="M87.3449 7.06946C108.555 7.06946 106.134 44.5272 121.446 55.9454C141.713 71.0576 176.577 63.5739 176.577 89.5103C176.577 135.04 131.355 151.535 82.0727 151.535C32.7906 151.535 -9.25948 126.283 5.41459 80.873C20.0874 35.4628 38.064 7.06946 87.3449 7.06946Z" fill="#E9EEF7"/>
<path fill-rule="evenodd" clip-rule="evenodd" d="M89.5133 161C133.904 161 170.107 159.744 170.107 158.207C170.107 156.669 133.902 155.415 89.5133 155.415C45.1241 155.415 8.91943 156.67 8.91943 158.207C8.91943 159.743 45.1241 161 89.5133 161Z" fill="#D1DEED"/>
<path fill-rule="evenodd" clip-rule="evenodd" d="M70.7022 131.49C57.8518 131.49 47.4351 133.838 47.4351 136.734C47.4351 139.63 57.8518 141.979 70.7022 141.979C83.5526 141.979 93.9707 139.63 93.9707 136.734C93.9707 133.838 83.5539 131.49 70.7022 131.49Z" fill="#D0A485"/>
<path fill-rule="evenodd" clip-rule="evenodd" d="M71.1969 116.37C84.0485 116.37 94.4653 118.717 94.4653 121.614C94.4653 124.512 84.0485 126.858 71.1969 126.858C58.3452 126.858 47.9297 124.51 47.9297 121.614C47.9297 118.718 58.3465 116.37 71.1969 116.37Z" fill="#D0A485"/>
<path fill-rule="evenodd" clip-rule="evenodd" d="M69.8973 102.224C82.7477 102.224 93.1645 104.572 93.1645 107.469C93.1645 110.367 82.7477 112.713 69.8973 112.713C57.0469 112.713 46.6289 110.364 46.6289 107.469C46.6289 104.574 57.0469 102.224 69.8973 102.224Z" fill="#BADAF9"/>
<path fill-rule="evenodd" clip-rule="evenodd" d="M75.233 124.437C62.3826 124.437 51.9658 126.784 51.9658 129.682C51.9658 132.579 62.3826 134.926 75.233 134.926C88.0834 134.926 98.5014 132.578 98.5014 129.682C98.5014 126.786 88.0846 124.437 75.233 124.437Z" fill="#D0A485"/>
<path fill-rule="evenodd" clip-rule="evenodd" d="M66.6669 109.316C79.5173 109.316 89.9353 111.665 89.9353 114.56C89.9353 117.455 79.5173 119.805 66.6669 119.805C53.8165 119.805 43.3984 117.458 43.3984 114.56C43.3984 111.663 53.8152 109.316 66.6669 109.316Z" fill="#BADAF9"/>
<path fill-rule="evenodd" clip-rule="evenodd" d="M65.3663 95.1709C78.2167 95.1709 88.6335 97.5186 88.6335 100.415C88.6335 103.311 78.2167 105.66 65.3663 105.66C52.5159 105.66 42.0991 103.312 42.0991 100.415C42.0991 97.5174 52.5159 95.1709 65.3663 95.1709Z" fill="#BADAF9"/>
<path fill-rule="evenodd" clip-rule="evenodd" d="M70.7035 147.897C57.8519 147.897 47.4351 145.549 47.4351 142.653V136.734C47.4351 139.63 57.8519 141.979 70.7035 141.979C83.5551 141.979 93.9707 139.63 93.9707 136.734V142.653C93.9707 145.549 83.5539 147.897 70.7035 147.897Z" fill="#86644E"/>
<path fill-rule="evenodd" clip-rule="evenodd" d="M71.1981 132.776C84.0485 132.776 94.4653 130.428 94.4653 127.532V121.613C94.4653 124.511 84.0485 126.858 71.1981 126.858C58.3477 126.858 47.9297 124.511 47.9297 121.613V127.532C47.9297 130.428 58.3465 132.776 71.1981 132.776Z" fill="#86644E"/>
<path fill-rule="evenodd" clip-rule="evenodd" d="M69.8971 118.631C82.7475 118.631 93.1642 116.283 93.1642 113.387V107.468C93.1642 110.364 82.7475 112.713 69.8971 112.713C57.0467 112.713 46.6299 110.364 46.6299 107.468V113.387C46.6299 116.283 57.0467 118.631 69.8971 118.631Z" fill="#619FDF"/>
<path fill-rule="evenodd" clip-rule="evenodd" d="M75.233 140.844C62.3826 140.844 51.9658 138.496 51.9658 135.6V129.681C51.9658 132.578 62.3826 134.926 75.233 134.926C88.0834 134.926 98.5014 132.578 98.5014 129.681V135.6C98.5014 138.496 88.0846 140.844 75.233 140.844Z" fill="#86644E"/>
<path fill-rule="evenodd" clip-rule="evenodd" d="M66.6669 125.723C79.5173 125.723 89.934 123.375 89.934 120.479V114.56C89.934 117.458 79.5173 119.805 66.6669 119.805C53.8165 119.805 43.3984 117.458 43.3984 114.56V120.479C43.3984 123.375 53.8152 125.723 66.6669 125.723Z" fill="#619FDF"/>
<path fill-rule="evenodd" clip-rule="evenodd" d="M65.3663 111.578C78.2167 111.578 88.6335 109.23 88.6335 106.334V100.415C88.6335 103.312 78.2167 105.66 65.3663 105.66C52.5159 105.66 42.0991 103.312 42.0991 100.415V106.334C42.0991 109.23 52.5159 111.578 65.3663 111.578Z" fill="#619FDF"/>
<path fill-rule="evenodd" clip-rule="evenodd" d="M55.7507 97.8991C55.1788 98.3753 54.5799 99.0478 54.4007 99.9523L51.2161 100.017L51.0332 101.399L54.4572 101.33C54.9788 102.811 57.1436 103.654 60.0865 103.592C63.119 103.531 64.8102 102.525 66.3737 101.128C67.7469 99.805 68.7999 99.319 70.3315 99.2883C71.8336 99.2577 72.9382 99.7277 72.8044 100.744C72.6866 101.632 71.9159 102.478 71.1513 103.042L74.4587 103.397C75.1901 102.847 75.913 101.918 76.0921 101.014L79.5161 100.944L79.7002 99.5608L76.0369 99.6356C75.5865 98.0537 73.2486 97.1738 70.1855 97.2364C67.0634 97.3002 65.279 98.0967 63.4663 99.794C62.1483 100.933 61.2266 101.556 59.8448 101.585C58.674 101.609 57.5069 101.154 57.6321 100.209C57.7401 99.3902 58.4629 98.6845 58.9697 98.2538L55.7519 97.8979L55.7507 97.8991Z" fill="white"/>
<path fill-rule="evenodd" clip-rule="evenodd" d="M70.3131 87.9387C57.4627 87.9387 47.0459 90.2877 47.0459 93.1839C47.0459 96.0802 57.4627 98.4279 70.3131 98.4279C83.1635 98.4279 93.5803 96.0802 93.5803 93.1839C93.5803 90.2877 83.1635 87.9387 70.3131 87.9387Z" fill="#BADAF9"/>
<path d="M70.8077 83.3072C83.6578 83.3072 94.0749 80.9594 94.0749 78.0632C94.0749 75.167 83.6578 72.8192 70.8077 72.8192C57.9576 72.8192 47.5405 75.167 47.5405 78.0632C47.5405 80.9594 57.9576 83.3072 70.8077 83.3072Z" fill="#BADAF9"/>
<path fill-rule="evenodd" clip-rule="evenodd" d="M69.5067 58.673C82.3583 58.673 92.7751 61.0207 92.7751 63.9182C92.7751 66.8157 82.3583 69.1622 69.5067 69.1622C56.6551 69.1622 46.2383 66.8145 46.2383 63.9182C46.2383 61.0219 56.6551 58.673 69.5067 58.673Z" fill="#BADAF9"/>
<path d="M74.8429 91.3751C87.693 91.3751 98.1101 89.0272 98.1101 86.1311C98.1101 83.2349 87.693 80.8871 74.8429 80.8871C61.9928 80.8871 51.5757 83.2349 51.5757 86.1311C51.5757 89.0272 61.9928 91.3751 74.8429 91.3751Z" fill="#BADAF9"/>
<path fill-rule="evenodd" clip-rule="evenodd" d="M66.2769 65.7651C79.1273 65.7651 89.5441 68.1128 89.5441 71.0091C89.5441 73.9054 79.1273 76.2543 66.2769 76.2543C53.4265 76.2543 43.0098 73.9054 43.0098 71.0091C43.0098 68.1128 53.4265 65.7651 66.2769 65.7651Z" fill="#BADAF9"/>
<path fill-rule="evenodd" clip-rule="evenodd" d="M64.9769 51.6212C77.8273 51.6212 88.2441 53.9689 88.2441 56.8652C88.2441 59.7615 77.8273 62.1092 64.9769 62.1092C52.1265 62.1092 41.7085 59.7615 41.7085 56.8652C41.7085 53.9689 52.1253 51.6212 64.9769 51.6212Z" fill="#BADAF9"/>
<path fill-rule="evenodd" clip-rule="evenodd" d="M70.3131 104.347C57.4627 104.347 47.0459 101.998 47.0459 99.1017V93.184C47.0459 96.0802 57.4627 98.4279 70.3131 98.4279C83.1635 98.4279 93.5803 96.0802 93.5803 93.184V99.1017C93.5803 101.998 83.1635 104.347 70.3131 104.347Z" fill="#619FDF"/>
<path fill-rule="evenodd" clip-rule="evenodd" d="M70.8077 89.225C83.6581 89.225 94.0749 86.8773 94.0749 83.9798V78.062C94.0749 80.9583 83.6581 83.306 70.8077 83.306C57.9573 83.306 47.5405 80.9583 47.5405 78.062V83.9798C47.5405 86.8773 57.9573 89.225 70.8077 89.225Z" fill="#619FDF"/>
<path fill-rule="evenodd" clip-rule="evenodd" d="M69.5067 75.081C82.3583 75.081 92.7751 72.7321 92.7751 69.8358V63.9181C92.7751 66.8144 82.3583 69.1621 69.5067 69.1621C56.6551 69.1621 46.2383 66.8144 46.2383 63.9181V69.8358C46.2383 72.7321 56.6563 75.081 69.5067 75.081Z" fill="#619FDF"/>
<path fill-rule="evenodd" clip-rule="evenodd" d="M74.8429 97.2941C61.9925 97.2941 51.5757 94.9451 51.5757 92.0488V86.1311C51.5757 89.0274 61.9925 91.3751 74.8429 91.3751C87.6933 91.3751 98.1101 89.0274 98.1101 86.1311V92.0488C98.1101 94.9451 87.6933 97.2941 74.8429 97.2941Z" fill="#619FDF"/>
<path fill-rule="evenodd" clip-rule="evenodd" d="M66.2769 82.172C79.1273 82.172 89.5441 79.8243 89.5441 76.928V71.009C89.5441 73.9053 79.1273 76.253 66.2769 76.253C53.4265 76.253 43.0098 73.9053 43.0098 71.009V76.928C43.0098 79.8243 53.4265 82.172 66.2769 82.172Z" fill="#619FDF"/>
<path fill-rule="evenodd" clip-rule="evenodd" d="M64.9757 68.0282C77.8273 68.0282 88.2441 65.6792 88.2441 62.783V56.8652C88.2441 59.7615 77.8273 62.1092 64.9757 62.1092C52.1241 62.1092 41.7085 59.7615 41.7085 56.8652V62.783C41.7085 65.6792 52.1253 68.0282 64.9757 68.0282Z" fill="#619FDF"/>
<path fill-rule="evenodd" clip-rule="evenodd" d="M55.3606 54.3482C54.7874 54.8244 54.1898 55.4981 54.0094 56.4026L50.8259 56.4676L50.6431 57.8507L54.0658 57.7808C54.5874 59.2621 56.7535 60.1039 59.6952 60.0438C62.7277 59.9824 64.4188 58.9761 65.9823 57.5795C67.3556 56.2566 68.4085 55.7706 69.9401 55.7387C71.441 55.708 72.5468 56.178 72.413 57.1942C72.294 58.0827 71.5233 58.9282 70.7599 59.4928L74.0661 59.8474C74.7975 59.2976 75.5204 58.3686 75.7008 57.4642L79.1236 57.3942L79.3076 56.0111L75.6443 56.086C75.1939 54.5053 72.8561 53.6241 69.7929 53.6867C66.6696 53.7518 64.8864 54.5482 63.0738 56.2443C61.7545 57.3832 60.834 58.0066 59.4509 58.0348C58.2802 58.0594 57.1118 57.6041 57.2382 56.6591C57.3475 55.8405 58.0691 55.1361 58.5759 54.7041L55.3593 54.3482H55.3606Z" fill="white"/>
<path fill-rule="evenodd" clip-rule="evenodd" d="M41.5222 136.617C30.9667 136.617 22.4092 138.546 22.4092 140.925C22.4092 143.303 30.9667 145.234 41.5222 145.234C52.0776 145.234 60.6352 143.303 60.6352 140.925C60.6352 138.546 52.0789 136.617 41.5222 136.617Z" fill="#BADAF9"/>
<path fill-rule="evenodd" clip-rule="evenodd" d="M44.1975 123.18C33.642 123.18 25.0845 125.109 25.0845 127.488C25.0845 129.866 33.642 131.795 44.1975 131.795C54.7529 131.795 63.3104 129.867 63.3104 127.488C63.3104 125.108 54.7529 123.18 44.1975 123.18Z" fill="#BADAF9"/>
<path fill-rule="evenodd" clip-rule="evenodd" d="M45.2443 130.823C34.6889 130.823 26.1313 132.753 26.1313 135.131C26.1313 137.509 34.6889 139.439 45.2443 139.439C55.7998 139.439 64.3573 137.509 64.3573 135.131C64.3573 132.753 55.801 130.823 45.2443 130.823Z" fill="#BADAF9"/>
<path fill-rule="evenodd" clip-rule="evenodd" d="M47.9187 117.386C37.3632 117.386 28.8057 119.316 28.8057 121.694C28.8057 124.072 37.3632 126.002 47.9187 126.002C58.4741 126.002 67.0316 124.072 67.0316 121.694C67.0316 119.316 58.4741 117.386 47.9187 117.386Z" fill="#BADAF9"/>
<path fill-rule="evenodd" clip-rule="evenodd" d="M41.5222 150.095C30.9667 150.095 22.4092 148.166 22.4092 145.787V140.925C22.4092 143.303 30.9667 145.232 41.5222 145.232C52.0776 145.232 60.6352 143.303 60.6352 140.925V145.787C60.6352 148.166 52.0789 150.095 41.5222 150.095Z" fill="#619FDF"/>
<path fill-rule="evenodd" clip-rule="evenodd" d="M44.1975 136.658C33.642 136.658 25.0845 134.728 25.0845 132.349V127.488C25.0845 129.866 33.642 131.795 44.1975 131.795C54.7529 131.795 63.3104 129.866 63.3104 127.488V132.349C63.3104 134.728 54.7529 136.658 44.1975 136.658Z" fill="#619FDF"/>
<path fill-rule="evenodd" clip-rule="evenodd" d="M45.2443 144.301C34.6889 144.301 26.1313 142.372 26.1313 139.993V135.132C26.1313 137.511 34.6889 139.44 45.2443 139.44C55.7998 139.44 64.3573 137.511 64.3573 135.132V139.993C64.3573 142.372 55.801 144.301 45.2443 144.301Z" fill="#619FDF"/>
<path fill-rule="evenodd" clip-rule="evenodd" d="M47.9187 130.864C37.3632 130.864 28.8057 128.936 28.8057 126.556V121.695C28.8057 124.074 37.3632 126.003 47.9187 126.003C58.4741 126.003 67.0316 124.074 67.0316 121.695V126.556C67.0316 128.936 58.4741 130.864 47.9187 130.864Z" fill="#619FDF"/>
<path fill-rule="evenodd" clip-rule="evenodd" d="M39.1534 119.523C38.6834 119.915 38.1913 120.467 38.044 121.209L35.4276 121.263L35.2778 122.398L38.0907 122.342C38.5202 123.558 40.2985 124.25 42.7161 124.201C45.2062 124.15 46.5954 123.324 47.8803 122.176C49.0082 121.09 49.8734 120.69 51.1313 120.664C52.3647 120.64 53.2728 121.025 53.1611 121.86C53.0642 122.59 52.4309 123.286 51.8026 123.748L54.5197 124.041C55.121 123.589 55.7138 122.826 55.8623 122.082L58.6739 122.024L58.8248 120.889L55.8144 120.95C55.445 119.651 53.5244 118.928 51.0086 118.979C48.4424 119.031 46.9783 119.686 45.4897 121.08C44.406 122.016 43.6488 122.529 42.5136 122.552C41.5527 122.572 40.593 122.197 40.6949 121.422C40.7844 120.749 41.3784 120.171 41.7945 119.816L39.1522 119.523H39.1534Z" fill="white"/>
<path fill-rule="evenodd" clip-rule="evenodd" d="M59.5884 134.075C59.5884 122.294 69.1387 112.744 80.9214 112.744C92.7041 112.744 102.253 122.294 102.253 134.075C102.253 145.857 92.7029 155.409 80.9214 155.409C69.14 155.409 59.5884 145.858 59.5884 134.075Z" fill="#619FDF"/>
<path fill-rule="evenodd" clip-rule="evenodd" d="M62.8159 134.076C62.8159 124.077 70.9218 115.973 80.9213 115.973C90.9209 115.973 99.0243 124.077 99.0243 134.076C99.0243 144.074 90.9196 152.181 80.9213 152.181C70.923 152.181 62.8159 144.075 62.8159 134.076Z" fill="#619FDF"/>
<path fill-rule="evenodd" clip-rule="evenodd" d="M90.3922 118.623C92.195 121.437 93.2406 124.784 93.2406 128.375C93.2406 138.375 85.1359 146.479 75.1364 146.479C71.6645 146.479 68.4197 145.501 65.6646 143.806C68.8811 148.829 74.5117 152.159 80.9203 152.159C90.9186 152.159 99.0233 144.053 99.0233 134.053C99.0233 127.527 95.5699 121.809 90.3922 118.623Z" fill="#98C4F1"/>
<path fill-rule="evenodd" clip-rule="evenodd" d="M65.987 135.731C65.987 126.905 73.1418 119.751 81.9681 119.751C87.1262 119.751 91.7148 122.196 94.6369 125.99C91.8781 121.199 86.7053 117.974 80.7789 117.974C71.9526 117.974 64.7979 125.129 64.7979 133.955C64.7979 137.622 66.0349 141 68.1114 143.697C66.7614 141.353 65.987 138.632 65.987 135.732V135.731Z" fill="#A7D1FB"/>
<path fill-rule="evenodd" clip-rule="evenodd" d="M82.4149 122.39V124.697C83.3403 124.847 84.0975 125.151 84.6866 125.615C85.2744 126.078 85.8353 126.788 86.3691 127.744L84.0754 129.027C83.3845 127.771 82.4824 127.144 81.3693 127.144C80.6784 127.144 80.1053 127.348 79.6512 127.757C79.1971 128.164 78.9689 128.673 78.9689 129.286C78.9689 129.843 79.153 130.306 79.5224 130.675C79.8832 131.036 80.6121 131.463 81.7105 131.957C82.6604 132.389 83.4446 132.796 84.0644 133.176C84.6841 133.556 85.1505 133.923 85.4634 134.276C86.3507 135.233 86.7937 136.39 86.7937 137.746C86.7937 139.102 86.3937 140.257 85.5935 141.277C84.8007 142.288 83.7428 142.971 82.4162 143.325V145.761H80.3569V143.395C78.8191 143.144 77.6459 142.615 76.8384 141.807C76.0309 140.998 75.4344 139.752 75.0503 138.064L77.6398 137.523C77.992 138.716 78.424 139.566 78.9345 140.077C79.4671 140.563 80.1777 140.806 81.0638 140.806C81.9498 140.806 82.6481 140.527 83.2286 139.971C83.8005 139.423 84.0877 138.711 84.0877 137.841C84.0877 137.064 83.8484 136.44 83.3697 135.97C83.1255 135.743 82.7684 135.486 82.2934 135.199C81.8185 134.913 81.2123 134.601 80.4747 134.263C78.9529 133.581 77.9527 132.954 77.4741 132.381C76.7132 131.525 76.3328 130.502 76.3328 129.309C76.3328 128.744 76.4223 128.219 76.604 127.732C76.7844 127.246 77.0446 126.804 77.3857 126.409C77.7269 126.013 78.1491 125.669 78.651 125.379C79.1517 125.089 79.7212 124.861 80.3569 124.697V122.39H82.4162H82.4149Z" fill="white"/>
<path fill-rule="evenodd" clip-rule="evenodd" d="M50.3925 143.932C61.8071 143.932 71.0616 146.018 71.0616 148.591C71.0616 151.165 61.8083 153.25 50.3925 153.25C38.9768 153.25 29.7222 151.164 29.7222 148.591C29.7222 146.019 38.9755 143.932 50.3925 143.932Z" fill="#BADAF9"/>
<path fill-rule="evenodd" clip-rule="evenodd" d="M50.3913 158.507C61.8071 158.507 71.0616 156.421 71.0616 153.849V148.591C71.0616 151.165 61.8083 153.251 50.3913 153.251C38.9743 153.251 29.7222 151.165 29.7222 148.591V153.849C29.7222 156.421 38.9755 158.507 50.3913 158.507Z" fill="#619FDF"/>
<path fill-rule="evenodd" clip-rule="evenodd" d="M41.8497 146.355C41.3416 146.779 40.809 147.378 40.6495 148.18L37.8219 148.238L37.6587 149.466L40.6998 149.405C41.1637 150.721 43.0868 151.468 45.7008 151.414C48.3946 151.359 49.8967 150.466 51.2859 149.225C52.5058 148.05 53.441 147.619 54.802 147.59C56.136 147.563 57.1178 147.98 56.9975 148.882C56.8932 149.672 56.2072 150.425 55.5297 150.925L58.4677 151.241C59.1194 150.752 59.76 149.928 59.9208 149.124L62.9619 149.061L63.1251 147.833L59.8705 147.899C59.4716 146.495 57.3939 145.713 54.6719 145.767C51.8983 145.825 50.314 146.532 48.7038 148.04C47.5318 149.051 46.7132 149.605 45.486 149.631C44.4453 149.653 43.4083 149.248 43.52 148.408C43.6157 147.681 44.2575 147.056 44.7079 146.672L41.8509 146.355H41.8497Z" fill="white"/>
<path fill-rule="evenodd" clip-rule="evenodd" d="M109.285 132.152C95.8974 132.152 85.0449 134.598 85.0449 137.616C85.0449 140.634 95.8974 143.08 109.285 143.08C122.673 143.08 133.527 140.634 133.527 137.616C133.527 134.598 122.674 132.152 109.285 132.152Z" fill="#D0A485"/>
<path fill-rule="evenodd" clip-rule="evenodd" d="M114.005 124.805C100.617 124.805 89.7646 127.251 89.7646 130.269C89.7646 133.286 100.617 135.732 114.005 135.732C127.393 135.732 138.247 133.286 138.247 130.269C138.247 127.251 127.394 124.805 114.005 124.805Z" fill="#D0A485"/>
<path fill-rule="evenodd" clip-rule="evenodd" d="M109.285 149.245C95.8974 149.245 85.0449 146.8 85.0449 143.782V137.616C85.0449 140.634 95.8974 143.08 109.285 143.08C122.673 143.08 133.527 140.634 133.527 137.616V143.782C133.527 146.8 122.673 149.245 109.285 149.245Z" fill="#619FDF"/>
<path fill-rule="evenodd" clip-rule="evenodd" d="M109.802 133.493C123.19 133.493 134.042 131.047 134.042 128.029V121.863C134.042 124.881 123.19 127.327 109.802 127.327C96.4137 127.327 85.5601 124.881 85.5601 121.863V128.029C85.5601 131.047 96.4137 133.493 109.802 133.493Z" fill="#86644E"/>
<path fill-rule="evenodd" clip-rule="evenodd" d="M114.005 141.898C100.617 141.898 89.7637 139.452 89.7637 136.434V130.269C89.7637 133.287 100.617 135.732 114.005 135.732C127.393 135.732 138.247 133.287 138.247 130.269V136.434C138.247 139.452 127.393 141.898 114.005 141.898Z" fill="#86644E"/>
<path fill-rule="evenodd" clip-rule="evenodd" d="M78.8853 137.494C67.8868 137.494 58.9722 139.504 58.9722 141.983C58.9722 144.462 67.8868 146.471 78.8853 146.471C89.8838 146.471 98.7972 144.461 98.7972 141.983C98.7972 139.505 89.8826 137.494 78.8853 137.494Z" fill="#BADAF9"/>
<path fill-rule="evenodd" clip-rule="evenodd" d="M81.6724 123.496C70.6752 123.496 61.7593 125.506 61.7593 127.984C61.7593 130.461 70.6752 132.472 81.6724 132.472C92.6697 132.472 101.584 130.463 101.584 127.984C101.584 125.505 92.6697 123.496 81.6724 123.496Z" fill="#BADAF9"/>
<path fill-rule="evenodd" clip-rule="evenodd" d="M82.762 131.457C71.7647 131.457 62.8501 133.467 62.8501 135.946C62.8501 138.425 71.7647 140.434 82.762 140.434C93.7593 140.434 102.674 138.424 102.674 135.946C102.674 133.468 93.7593 131.457 82.762 131.457Z" fill="#BADAF9"/>
<path fill-rule="evenodd" clip-rule="evenodd" d="M85.5491 117.459C74.5519 117.459 65.6372 119.469 65.6372 121.947C65.6372 124.425 74.5519 126.435 85.5491 126.435C96.5464 126.435 105.462 124.426 105.462 121.947C105.462 119.468 96.5476 117.459 85.5491 117.459Z" fill="#BADAF9"/>
<path fill-rule="evenodd" clip-rule="evenodd" d="M78.8841 151.534C67.8868 151.534 58.9722 149.524 58.9722 147.046V141.983C58.9722 144.461 67.8868 146.471 78.8841 146.471C89.8814 146.471 98.7972 144.461 98.7972 141.983V147.046C98.7972 149.524 89.8826 151.534 78.8841 151.534Z" fill="#619FDF"/>
<path fill-rule="evenodd" clip-rule="evenodd" d="M81.6722 137.536C70.6749 137.536 61.7603 135.526 61.7603 133.048V127.984C61.7603 130.463 70.6749 132.472 81.6722 132.472C92.6694 132.472 101.584 130.463 101.584 127.984V133.048C101.584 135.526 92.6694 137.536 81.6722 137.536Z" fill="#619FDF"/>
<path fill-rule="evenodd" clip-rule="evenodd" d="M82.762 145.499C71.7647 145.499 62.8501 143.489 62.8501 141.011V135.947C62.8501 138.425 71.7647 140.435 82.762 140.435C93.7593 140.435 102.674 138.425 102.674 135.947V141.011C102.674 143.489 93.7593 145.499 82.762 145.499Z" fill="#619FDF"/>
<path fill-rule="evenodd" clip-rule="evenodd" d="M85.5491 131.501C74.5519 131.501 65.6372 129.491 65.6372 127.013V121.948C65.6372 124.427 74.5519 126.436 85.5491 126.436C96.5464 126.436 105.462 124.427 105.462 121.948V127.013C105.462 129.491 96.5476 131.501 85.5491 131.501Z" fill="#619FDF"/>
<path fill-rule="evenodd" clip-rule="evenodd" d="M76.4175 119.685C75.9278 120.092 75.4148 120.669 75.2614 121.442L72.537 121.499L72.3799 122.682L75.3093 122.622C75.756 123.889 77.6079 124.61 80.1274 124.558C82.7243 124.506 84.1712 123.644 85.5089 122.449C86.6846 121.317 87.5841 120.901 88.8948 120.874C90.181 120.848 91.1259 121.25 91.0106 122.12C90.9099 122.881 90.2497 123.603 89.5968 124.087L92.4268 124.39C93.0527 123.919 93.6712 123.125 93.8259 122.351L96.7553 122.29L96.9124 121.106L93.778 121.171C93.3926 119.817 91.391 119.065 88.7709 119.119C86.0979 119.173 84.5725 119.856 83.0213 121.307C81.891 122.282 81.1043 122.816 79.9213 122.84C78.9198 122.861 77.9196 122.472 78.0276 121.663C78.1197 120.962 78.7382 120.36 79.1714 119.991L76.4187 119.685H76.4175Z" fill="white"/>
<path fill-rule="evenodd" clip-rule="evenodd" d="M97.7061 134.846C97.7061 122.573 107.657 112.622 119.93 112.622C132.204 112.622 142.153 122.573 142.153 134.846C142.153 147.12 132.204 157.069 119.93 157.069C107.657 157.069 97.7061 147.119 97.7061 134.846Z" fill="#619FDF"/>
<path fill-rule="evenodd" clip-rule="evenodd" d="M101.07 134.846C101.07 124.429 109.514 115.984 119.931 115.984C130.348 115.984 138.793 124.428 138.793 134.846C138.793 145.264 130.348 153.708 119.931 153.708C109.514 153.708 101.07 145.263 101.07 134.846Z" fill="#BADAF9"/>
<path fill-rule="evenodd" clip-rule="evenodd" d="M129.799 118.747C131.677 121.681 132.766 125.167 132.766 128.908C132.766 139.325 124.323 147.769 113.905 147.769C110.287 147.769 106.908 146.749 104.038 144.983C107.389 150.216 113.255 153.684 119.932 153.684C130.348 153.684 138.793 145.241 138.793 134.823C138.793 128.024 135.195 122.066 129.8 118.747H129.799Z" fill="#A3CFFB"/>
<path fill-rule="evenodd" clip-rule="evenodd" d="M104.374 136.572C104.374 127.377 111.828 119.923 121.023 119.923C126.399 119.923 131.178 122.47 134.221 126.422C131.346 121.431 125.957 118.072 119.784 118.072C110.588 118.072 103.135 125.527 103.135 134.721C103.135 138.541 104.423 142.061 106.587 144.87C105.18 142.428 104.375 139.594 104.375 136.572H104.374Z" fill="#A7D1FB"/>
<path fill-rule="evenodd" clip-rule="evenodd" d="M121.487 122.672V125.075C122.452 125.23 123.241 125.549 123.854 126.031C124.466 126.515 125.05 127.253 125.606 128.25L123.215 129.586C122.497 128.278 121.556 127.624 120.396 127.624C119.677 127.624 119.08 127.836 118.606 128.262C118.132 128.688 117.895 129.218 117.895 129.856C117.895 130.436 118.087 130.919 118.471 131.303C118.846 131.679 119.607 132.124 120.751 132.639C121.739 133.089 122.556 133.511 123.202 133.907C123.849 134.304 124.333 134.686 124.661 135.054C125.585 136.05 126.047 137.257 126.047 138.67C126.047 140.084 125.631 141.286 124.796 142.348C123.97 143.403 122.867 144.113 121.486 144.481V147.019H119.341V144.555C117.738 144.294 116.517 143.741 115.675 142.899C114.833 142.058 114.212 140.758 113.811 139.002L116.509 138.437C116.875 139.679 117.326 140.566 117.857 141.098C118.412 141.605 119.152 141.859 120.076 141.859C121 141.859 121.727 141.568 122.332 140.989C122.928 140.417 123.226 139.677 123.226 138.77C123.226 137.961 122.977 137.311 122.478 136.821C122.225 136.584 121.851 136.317 121.357 136.017C120.863 135.719 120.231 135.394 119.462 135.043C117.877 134.332 116.835 133.678 116.337 133.082C115.543 132.191 115.147 131.124 115.147 129.882C115.147 129.293 115.241 128.746 115.43 128.239C115.616 127.732 115.889 127.272 116.245 126.859C116.601 126.446 117.039 126.089 117.563 125.787C118.086 125.485 118.679 125.248 119.341 125.076V122.673H121.486L121.487 122.672Z" fill="white"/>
<path fill-rule="evenodd" clip-rule="evenodd" d="M88.1266 145.115C100.019 145.115 109.66 147.288 109.66 149.968C109.66 152.649 100.019 154.822 88.1266 154.822C76.2347 154.822 66.5923 152.649 66.5923 149.968C66.5923 147.288 76.2322 145.115 88.1266 145.115Z" fill="#BADAF9"/>
<path fill-rule="evenodd" clip-rule="evenodd" d="M88.1254 160.299C100.019 160.299 109.66 158.126 109.66 155.445V149.969C109.66 152.65 100.019 154.823 88.1254 154.823C76.2322 154.823 66.5923 152.65 66.5923 149.969V155.445C66.5923 158.126 76.2322 160.299 88.1254 160.299Z" fill="#619FDF"/>
<path fill-rule="evenodd" clip-rule="evenodd" d="M79.2264 147.64C78.6962 148.081 78.1427 148.704 77.9758 149.54L75.0292 149.6L74.8599 150.879L78.0286 150.814C78.5109 152.185 80.515 152.964 83.2382 152.908C86.0461 152.851 87.6096 151.921 89.0565 150.627C90.3279 149.404 91.3024 148.953 92.7198 148.924C94.1091 148.896 95.1326 149.33 95.0086 150.27C94.8994 151.094 94.1864 151.875 93.4795 152.398L96.5402 152.726C97.2177 152.218 97.8853 151.358 98.0522 150.521L101.221 150.456L101.39 149.176L97.9994 149.246C97.5846 147.783 95.4198 146.968 92.5848 147.025C89.6947 147.086 88.0441 147.822 86.3664 149.393C85.1453 150.447 84.2924 151.024 83.0148 151.051C81.93 151.073 80.85 150.652 80.9666 149.777C81.0672 149.018 81.7361 148.368 82.2036 147.967L79.2264 147.638V147.64Z" fill="white"/>
<path fill-rule="evenodd" clip-rule="evenodd" d="M88.5166 39.9601C88.5166 39.9601 87.4685 38.6887 86.9052 38.5108C86.3419 38.3328 85.2521 37.4885 85.1098 37.837C84.9674 38.1843 85.8424 38.7206 85.797 39.1183C85.7504 39.5159 83.0161 40.154 83.0333 40.575C83.0492 40.9959 83.6764 42.0121 84.7195 41.8955C85.7627 41.7789 88.4086 41.1506 88.951 41.4218C89.4947 41.693 88.5166 39.9614 88.5166 39.9614V39.9601Z" fill="#FFB17D"/>
<path fill-rule="evenodd" clip-rule="evenodd" d="M116.724 33.7772C115.179 35.8512 113.372 37.4896 111.514 38.7818C105.608 42.8894 99.2032 43.5018 99.2032 43.5018C97.6679 43.0097 92.9529 42.4967 90.1658 42.0487C88.9509 41.8536 88.1041 41.6695 88.0464 41.5063L88.1163 39.0788C88.1163 39.0788 98.3441 38.5376 100.038 37.7522C102.708 35.4511 105.067 32.464 106.606 30.1286C107.904 28.1576 109.357 26.7021 111.754 25.848C115.22 24.6122 121.52 27.3354 116.726 33.7759L116.724 33.7772Z" fill="#F47A44"/>
<path fill-rule="evenodd" clip-rule="evenodd" d="M112.035 37.2552L111.514 38.7831C105.608 42.8907 99.2034 43.5031 99.2034 43.5031C97.97 43.5031 92.9531 42.498 90.166 42.05C90.2752 42.0586 97.754 42.6428 99.4059 42.4722C101.07 42.3004 108.821 35.5837 108.821 35.5837L112.035 37.2552Z" fill="#EF6A30"/>
<path fill-rule="evenodd" clip-rule="evenodd" d="M105.358 114.175H116.661C117.471 113.625 116.444 108.256 116.444 108.256C116.444 108.256 113.358 107.086 112.826 109.466C112.291 111.844 108.897 112.6 107.099 112.892C105.871 113.092 105.482 113.767 105.359 114.176L105.358 114.175Z" fill="#284190"/>
<path fill-rule="evenodd" clip-rule="evenodd" d="M122.122 114.175H133.425C134.233 113.625 133.205 108.256 133.205 108.256C133.205 108.256 130.121 107.086 129.587 109.466C129.053 111.844 125.657 112.6 123.861 112.892C122.632 113.092 122.242 113.767 122.121 114.176L122.122 114.175Z" fill="#284190"/>
<path fill-rule="evenodd" clip-rule="evenodd" d="M108.399 59.3983C108.399 59.3983 108.907 65.737 109.505 73.3557C110.316 83.705 112.505 109.368 112.505 109.368C112.505 109.368 113.94 110.593 117.118 109.922C117.118 109.922 119.823 101.069 120.634 90.9653C120.647 90.7997 120.659 90.6328 120.673 90.4671C121.425 80.1804 122.594 58.5221 122.594 58.5221L108.4 59.3996L108.399 59.3983Z" fill="#4567C5"/>
<path fill-rule="evenodd" clip-rule="evenodd" d="M108.226 57.2078C108.226 57.2078 108.908 65.7358 109.505 73.3558L120.633 90.9641C120.645 90.7985 120.658 90.6316 120.671 90.4659C121.424 80.1792 122.593 58.5209 122.593 58.5209L108.225 57.2078H108.226Z" fill="#3B5BB2"/>
<path fill-rule="evenodd" clip-rule="evenodd" d="M111.469 57.2076C111.469 57.2076 119.541 77.3 122.122 84.915C123.959 90.3406 129.143 109.371 129.143 109.371C129.143 109.371 131.396 110.059 133.291 108.732C133.291 108.732 135.22 89.2876 131.324 83.8056C129.257 80.897 130.811 53.5701 122.431 53.3357C114.05 53.1013 111.468 57.2089 111.468 57.2089L111.469 57.2076Z" fill="#4567C5"/>
<path fill-rule="evenodd" clip-rule="evenodd" d="M115.075 27.5895C116.307 28.2375 117.51 28.278 118.552 28.0571C119.505 27.857 120.324 27.4361 120.908 27.063C121.506 26.6801 121.859 26.3475 121.859 26.3475C121.859 26.3475 121.816 26.2874 121.746 26.1683C121.382 25.5461 120.279 23.3064 120.769 19.7106C120.776 19.664 120.42 19.7303 119.881 19.8567C118.279 20.2359 115.059 21.1489 114.917 21.1894H114.912C114.912 21.1894 114.873 21.9467 114.739 23.3027C114.728 23.4218 114.715 23.547 114.703 23.6758C114.687 23.8341 114.669 24.0035 114.65 24.1765C114.501 25.5866 115.074 27.5895 115.074 27.5895H115.075Z" fill="#FFB17D"/>
<path fill-rule="evenodd" clip-rule="evenodd" d="M114.74 23.3028C117.131 23.8513 120.699 20.3206 120.699 20.3206C120.438 20.1255 120.164 19.9733 119.881 19.8567C118.279 20.2359 115.059 21.149 114.917 21.1895H114.912C114.912 21.1895 114.873 21.9467 114.739 23.3028H114.74Z" fill="#EF8161"/>
<path fill-rule="evenodd" clip-rule="evenodd" d="M114.006 21.4399C114.006 21.4399 115.023 21.8056 116.319 21.9799C118.213 22.2351 120.706 22.0842 121.49 19.7905C122.808 15.9296 124.493 13.6162 120.613 12.0392C118.535 11.1961 117.206 11.1507 116.303 11.4735C115.518 11.7508 115.056 12.3068 114.706 12.8554C113.952 14.0372 112.437 20.7649 114.006 21.4399Z" fill="#FFB17D"/>
<path fill-rule="evenodd" clip-rule="evenodd" d="M117.974 13.6174C118.939 14.0469 119.113 15.6657 119.13 16.1799C119.147 16.6953 119.216 17.1298 120.527 16.8217C120.741 16.7714 120.896 16.7861 121.003 16.8512C121.546 17.1727 120.852 18.7374 120.642 19.0749C120.642 19.0749 120.34 20.1966 121.01 20.7415C121.091 20.8066 122.406 21.3809 125.574 16.5321C126.073 15.7712 126.547 13.9696 125.779 12.319C127.013 7.93038 114.055 6.30184 112.388 9.29262C109.371 14.717 119.256 13.2333 117.975 13.6186L117.974 13.6174Z" fill="#284190"/>
<path fill-rule="evenodd" clip-rule="evenodd" d="M107.137 53.8242C107.311 56.1265 107.797 57.7759 108.864 57.7759C108.864 57.7759 113.606 59.445 119.275 59.4892C120.383 59.4965 121.95 59.2818 123.252 59.0645C124.581 58.8387 125.633 58.6129 125.633 58.6129C126.773 58.3491 128.03 57.6446 127.862 56.3462C127.765 55.6099 127.698 54.6526 127.653 53.5383C127.528 50.5291 127.549 46.381 127.534 42.4109C127.523 39.9724 127.499 37.6026 127.417 35.6035C127.417 35.6035 128.535 27.7491 127.293 26.4605C125.839 24.9535 121.566 24.4896 121.298 24.5473C121.218 24.5313 121.137 24.5105 121.055 24.4957C121.055 24.4957 117.415 26.5477 114.712 25.0296C114.712 25.0296 114.686 25.0345 114.636 25.0406C113.977 25.1449 110.69 25.9046 109.556 27.1036C109.165 27.5172 107.601 30.0527 107.558 32.8373C107.498 36.719 107.65 41.1285 107.65 41.1297C107.61 41.7605 107.542 42.5729 107.467 43.5007C107.389 44.4899 107.302 45.6067 107.227 46.7701C107.19 47.3567 107.156 47.9556 107.129 48.5557C107.044 50.4027 107.018 52.2632 107.136 53.8218L107.137 53.8242Z" fill="#F47A44"/>
<path fill-rule="evenodd" clip-rule="evenodd" d="M121.28 24.5521C121.28 24.5521 117.254 28.7063 114.374 27.8558C114.374 27.8558 113.99 27.2938 115.287 27.1146C116.583 26.9342 117.984 27.0078 121.28 24.5521Z" fill="#EF6A30"/>
<path fill-rule="evenodd" clip-rule="evenodd" d="M123.833 39.1515C123.833 39.1515 123.824 50.3856 127.653 53.5384C127.528 50.5292 127.549 46.3811 127.534 42.411L123.833 39.1503V39.1515Z" fill="#EF6A30"/>
<path fill-rule="evenodd" clip-rule="evenodd" d="M135.604 60.1813C135.604 60.1813 137.553 63.242 137.662 64.4128C137.736 65.2093 137.558 68.3498 137.16 68.3596C136.598 68.3755 136.039 66.4218 135.82 65.9149C135.603 65.4068 135.349 65.0092 135.133 65.0092C134.917 65.0092 135.604 66.9642 135.133 66.7482C134.662 66.531 133.865 64.7208 133.793 64.2864C133.721 63.8507 134.218 62.459 133.975 61.9117C133.732 61.3631 135.603 60.1813 135.603 60.1813H135.604Z" fill="#FFB17D"/>
<path fill-rule="evenodd" clip-rule="evenodd" d="M126.923 26.0359C126.923 26.0359 129.557 27.2803 131.767 36.4932C133.431 43.4381 136.62 61.1729 136.62 61.1729L133.923 62.2811C133.923 62.2811 124.051 39.6153 122.639 36.4281C121.227 33.241 126.924 26.0371 126.924 26.0371L126.923 26.0359Z" fill="#F47A44"/>
<path fill-rule="evenodd" clip-rule="evenodd" d="M115.194 11.2612C113.998 11.6417 113.496 12.2577 113.686 13.1107C115.121 14.2262 116.641 14.6275 118.245 14.3171C117.376 14.0581 116.359 13.0395 115.194 11.2625V11.2612Z" fill="#284190"/>
<path fill-rule="evenodd" clip-rule="evenodd" d="M125.294 13.2518C125.023 12.6947 125.072 12.3044 125.443 12.0823C126.331 12.2173 126.991 12.6235 127.427 13.3046C127.038 13.0812 126.328 13.0641 125.294 13.2518Z" fill="#284190"/>
<path fill-rule="evenodd" clip-rule="evenodd" d="M123.943 13.0702C124.094 13.8973 124.46 14.2827 125.043 14.2287C125.904 13.3709 126.301 12.3964 126.231 11.3042C125.985 11.8601 125.223 12.448 123.943 13.0702Z" fill="#284190"/>
<path fill-rule="evenodd" clip-rule="evenodd" d="M115.603 15.5995C115.257 15.3602 114.961 15.1135 114.596 14.8742C114.062 14.5244 113.802 14.8828 113.381 14.8141C113.483 14.7846 113.477 14.7539 113.602 14.6864C114.277 14.3256 114.72 14.5588 115.284 14.9982C115.597 15.2424 115.684 15.1749 115.604 15.5995H115.603Z" fill="#125AA2"/>
<path fill-rule="evenodd" clip-rule="evenodd" d="M114.578 15.2153C114.374 15.165 114.169 15.2889 114.119 15.4914C114.069 15.6939 114.193 15.8989 114.395 15.9492C114.599 15.9995 114.803 15.8756 114.853 15.6731C114.903 15.4706 114.779 15.2656 114.578 15.2153Z" fill="white"/>
<path fill-rule="evenodd" clip-rule="evenodd" d="M114.396 15.9491C114.193 15.8988 114.07 15.6939 114.12 15.4914C114.17 15.2877 114.375 15.1649 114.579 15.2153C114.664 15.2349 114.735 15.284 114.785 15.3478L114.758 15.3367C114.692 15.3208 114.626 15.3613 114.609 15.4263C114.593 15.4926 114.633 15.5589 114.698 15.5748C114.763 15.5908 114.831 15.5503 114.847 15.4852L114.849 15.4717C114.869 15.5343 114.871 15.6031 114.855 15.6718C114.805 15.8755 114.6 15.9995 114.396 15.9479V15.9491Z" fill="#125AA2"/>
<path fill-rule="evenodd" clip-rule="evenodd" d="M117.181 15.9896C117.6 15.938 117.975 15.8582 118.41 15.8178C119.043 15.7564 119.109 16.1957 119.513 16.3295C119.436 16.2559 119.456 16.2313 119.377 16.1135C118.947 15.4803 118.446 15.4803 117.744 15.6067C117.353 15.6766 117.309 15.576 117.181 15.9896Z" fill="#125AA2"/>
<path fill-rule="evenodd" clip-rule="evenodd" d="M118.266 16.1271C118.47 16.1774 118.592 16.3812 118.542 16.5837C118.492 16.7874 118.287 16.9101 118.084 16.8598C117.881 16.8095 117.758 16.6057 117.808 16.402C117.858 16.1995 118.063 16.0768 118.266 16.1271Z" fill="white"/>
<path fill-rule="evenodd" clip-rule="evenodd" d="M118.085 16.8609C118.289 16.9113 118.493 16.7873 118.543 16.5848C118.593 16.3811 118.47 16.1761 118.267 16.1258C118.182 16.105 118.096 16.1148 118.023 16.1479L118.052 16.1504C118.119 16.1663 118.158 16.2326 118.142 16.2989C118.126 16.3651 118.058 16.4044 117.993 16.3884C117.928 16.3725 117.888 16.305 117.904 16.24L117.909 16.2265C117.862 16.2731 117.828 16.3332 117.811 16.4019C117.76 16.6057 117.884 16.8106 118.087 16.8609H118.085Z" fill="#125AA2"/>
<path d="M115.588 18.2012C115.588 18.2012 115.581 18.2012 115.577 18.2012C115.403 18.1742 115.259 18.0772 115.15 17.9103C115.092 17.7766 115.14 17.5041 115.886 16.3996C115.909 16.3665 115.956 16.3566 115.993 16.38C116.027 16.4045 116.037 16.4511 116.014 16.4867C115.271 17.5851 115.269 17.7986 115.285 17.8379C115.363 17.957 115.47 18.0294 115.6 18.049C115.642 18.0551 115.67 18.0944 115.665 18.1361C115.659 18.1742 115.627 18.2012 115.589 18.2012H115.588Z" fill="#FB9674"/>
<path fill-rule="evenodd" clip-rule="evenodd" d="M114.243 19.1449C114.856 19.9573 115.582 20.0739 116.419 19.4947C115.472 19.4259 114.743 19.2701 114.243 19.1449Z" fill="white"/>
<path fill-rule="evenodd" clip-rule="evenodd" d="M37.0405 31.6211C37.0405 16.5273 49.2761 4.29175 64.3686 4.29175C79.4612 4.29175 91.698 16.5273 91.698 31.6211C91.698 46.7149 79.4624 58.9504 64.3686 58.9504C49.2749 58.9504 37.0405 46.7149 37.0405 31.6211Z" fill="#619FDF"/>
<path fill-rule="evenodd" clip-rule="evenodd" d="M41.1763 31.621C41.1763 18.8124 51.5599 8.42749 64.3686 8.42749C77.1773 8.42749 87.5634 18.8124 87.5634 31.621C87.5634 44.4297 77.1785 54.8146 64.3686 54.8146C51.5587 54.8146 41.1763 44.4309 41.1763 31.621Z" fill="#BADAF9"/>
<path fill-rule="evenodd" clip-rule="evenodd" d="M76.5036 11.8257C78.8133 15.4313 80.1522 19.718 80.1522 24.319C80.1522 37.1276 69.7686 47.5125 56.9587 47.5125C52.5099 47.5125 48.3545 46.2595 44.8237 44.0873C48.946 50.5217 56.1585 54.7876 64.3675 54.7876C77.1774 54.7876 87.5623 44.4027 87.5623 31.594C87.5623 23.2328 83.1381 15.9062 76.5036 11.8257Z" fill="#A3CFFB"/>
<path fill-rule="evenodd" clip-rule="evenodd" d="M45.2383 33.743C45.2383 22.4352 54.4046 13.269 65.7123 13.269C72.321 13.269 78.1982 16.4009 81.9425 21.262C78.4069 15.1245 71.781 10.9924 64.1893 10.9924C52.8816 10.9924 43.7153 20.1587 43.7153 31.4664C43.7153 36.1643 45.2985 40.4915 47.9591 43.9462C46.2287 40.9419 45.2396 37.4578 45.2396 33.7417L45.2383 33.743Z" fill="#D1E4F6"/>
<path fill-rule="evenodd" clip-rule="evenodd" d="M66.2832 16.6512V19.6064C67.4699 19.7967 68.4394 20.1906 69.1929 20.7821C69.9477 21.3749 70.6656 22.2843 71.3492 23.5103L68.4087 25.1535C67.5251 23.5459 66.3691 22.742 64.943 22.742C64.0582 22.742 63.3243 23.0034 62.7414 23.5262C62.1584 24.0478 61.8663 24.7019 61.8663 25.4861C61.8663 26.2004 62.1032 26.7919 62.5757 27.2656C63.0383 27.7283 63.9723 28.2744 65.3799 28.9089C66.5961 29.4611 67.6012 29.9815 68.3952 30.4687C69.1893 30.9559 69.7869 31.4259 70.1882 31.8776C71.3246 33.1036 71.8916 34.5861 71.8916 36.3239C71.8916 38.0616 71.3799 39.5404 70.3539 40.8462C69.339 42.1422 67.9829 43.0172 66.2832 43.4701V46.5909H63.6446V43.5609C61.6749 43.2381 60.1727 42.5607 59.137 41.5261C58.1012 40.4903 57.3378 38.8925 56.8457 36.7313L60.1629 36.0379C60.6146 37.5658 61.168 38.6568 61.8209 39.3097C62.5045 39.9332 63.4139 40.2436 64.5491 40.2436C65.6843 40.2436 66.5789 39.8878 67.3226 39.1735C68.0565 38.4703 68.4235 37.5597 68.4235 36.4453C68.4235 35.4501 68.1166 34.6511 67.5043 34.0486C67.1938 33.7565 66.7323 33.4288 66.1248 33.0619C65.5161 32.6949 64.7393 32.2948 63.7955 31.8641C61.8455 30.9891 60.5642 30.1852 59.9506 29.4513C58.9762 28.3566 58.489 27.0447 58.489 25.5168C58.489 24.7927 58.6043 24.119 58.8363 23.4955C59.067 22.8733 59.402 22.3076 59.8389 21.7995C60.2758 21.2927 60.817 20.8533 61.4601 20.4815C62.1032 20.1096 62.8322 19.8175 63.6458 19.6064V16.6512H66.2844H66.2832Z" fill="white"/>
<path fill-rule="evenodd" clip-rule="evenodd" d="M142.144 104.256H167.724C168.13 104.256 168.46 103.927 168.46 103.52C168.46 103.113 168.132 102.784 167.724 102.784H142.144C141.735 102.784 141.407 103.113 141.407 103.52C141.407 103.927 141.735 104.256 142.144 104.256ZM178.689 98.1656H181.735C182.14 98.1656 182.471 97.8367 182.471 97.4292C182.471 97.0218 182.142 96.6929 181.734 96.6929H178.688C178.282 96.6929 177.952 97.0218 177.952 97.4292C177.952 97.8367 178.281 98.1656 178.688 98.1656H178.689ZM173.817 104.256H176.255C176.66 104.256 176.99 103.927 176.99 103.52C176.99 103.113 176.66 102.784 176.253 102.784H173.817C173.41 102.784 173.081 103.113 173.081 103.52C173.081 103.927 173.409 104.256 173.817 104.256ZM147.016 98.1656H173.817C174.222 98.1656 174.552 97.8367 174.552 97.4292C174.552 97.0218 174.224 96.6929 173.816 96.6929H147.016C146.611 96.6929 146.279 97.0218 146.279 97.4292C146.279 97.8367 146.608 98.1656 147.016 98.1656Z" fill="#A3CFFB"/>
<path fill-rule="evenodd" clip-rule="evenodd" d="M0.775405 116.206H26.3572C26.7634 116.206 27.0935 115.877 27.0935 115.469C27.0935 115.062 26.7646 114.733 26.3572 114.733H0.775405C0.367962 114.733 0.0390625 115.062 0.0390625 115.469C0.0390625 115.877 0.367962 116.206 0.775405 116.206ZM37.3213 110.115H40.3673C40.7735 110.115 41.1036 109.786 41.1036 109.379C41.1036 108.971 40.7747 108.644 40.3673 108.644H37.3213C36.9151 108.644 36.5849 108.972 36.5849 109.379C36.5849 109.785 36.9138 110.115 37.3213 110.115ZM32.4492 116.206H34.8852C35.2902 116.206 35.6216 115.877 35.6216 115.469C35.6216 115.062 35.2914 114.733 34.8852 114.733H32.4492C32.0417 114.733 31.7128 115.062 31.7128 115.469C31.7128 115.877 32.0405 116.206 32.4492 116.206ZM5.64754 110.115H32.4492C32.8541 110.115 33.1843 109.786 33.1843 109.379C33.1843 108.971 32.8554 108.644 32.4479 108.644H5.64754C5.24132 108.644 4.91119 108.972 4.91119 109.379C4.91119 109.785 5.24009 110.115 5.64754 110.115Z" fill="#A3CFFB"/>
<path fill-rule="evenodd" clip-rule="evenodd" d="M28.9268 7.56223H54.5085C54.9147 7.56223 55.2436 7.23333 55.2436 6.82589C55.2436 6.41845 54.9147 6.08955 54.5085 6.08955H28.9268C28.5193 6.08955 28.1904 6.41845 28.1904 6.82589C28.1904 7.23333 28.5193 7.56223 28.9268 7.56223ZM65.4727 1.47146H68.5187C68.9236 1.47146 69.2538 1.14256 69.2538 0.735114C69.2538 0.328898 68.9249 0 68.5174 0H65.4714C65.0665 0 64.7351 0.328898 64.7351 0.735114C64.7351 1.14133 65.064 1.47146 65.4714 1.47146H65.4727ZM60.6005 7.56223H63.0378C63.4428 7.56223 63.7729 7.23333 63.7729 6.82589C63.7729 6.41845 63.4428 6.08955 63.0366 6.08955H60.6005C60.1931 6.08955 59.8642 6.41845 59.8642 6.82589C59.8642 7.23333 60.1919 7.56223 60.6005 7.56223ZM33.7989 1.47146H60.6005C61.0055 1.47146 61.3356 1.14256 61.3356 0.735114C61.3356 0.327671 61.0067 0 60.5993 0H33.7989C33.3939 0 33.0626 0.328898 33.0626 0.735114C33.0626 1.14133 33.3915 1.47146 33.7989 1.47146Z" fill="#A3CFFB"/>
</svg>
